<mxfile host="65bd71144e">
    <diagram id="D-vLM1L4ZUfKzCOjRSMH" name="Page-1">
        <mxGraphModel dx="3250" dy="727" grid="1" gridSize="10" guides="1" tooltips="1" connect="1" arrows="1" fold="1" page="1" pageScale="1" pageWidth="2339" pageHeight="3300" math="0" shadow="0">
            <root>
                <mxCell id="0"/>
                <mxCell id="1" parent="0"/>
                <mxCell id="4" value="" style="edgeStyle=none;html=1;fontSize=22;strokeWidth=3;strokeColor=#FFFFFF;" parent="1" source="2" target="3" edge="1">
                    <mxGeometry relative="1" as="geometry"/>
                </mxCell>
                <mxCell id="73" style="edgeStyle=none;html=1;exitX=0.5;exitY=1;exitDx=0;exitDy=0;strokeWidth=3;strokeColor=#FFFFFF;" parent="1" source="2" target="3" edge="1">
                    <mxGeometry relative="1" as="geometry"/>
                </mxCell>
                <mxCell id="2" value="&lt;font style=&quot;font-size: 22px;&quot;&gt;User&lt;/font&gt;" style="whiteSpace=wrap;html=1;fillColor=#d80073;fontColor=#ffffff;strokeColor=#A50040;" parent="1" vertex="1">
                    <mxGeometry x="510" y="130" width="170" height="70" as="geometry"/>
                </mxCell>
                <mxCell id="15" value="" style="edgeStyle=none;html=1;fontSize=15;fontColor=#000000;exitX=0.058;exitY=0.539;exitDx=0;exitDy=0;strokeColor=#3399FF;strokeWidth=4;endSize=15;entryX=0.5;entryY=0;entryDx=0;entryDy=0;exitPerimeter=0;" parent="1" source="61" target="14" edge="1">
                    <mxGeometry relative="1" as="geometry">
                        <mxPoint x="350" y="548.9499999999999" as="sourcePoint"/>
                        <Array as="points"/>
                        <mxPoint x="443.11583815028916" y="669.9993641618497" as="targetPoint"/>
                    </mxGeometry>
                </mxCell>
                <mxCell id="40" style="edgeStyle=none;html=1;exitX=0.5;exitY=1;exitDx=0;exitDy=0;fontSize=25;fontColor=#000000;" parent="1" source="3" edge="1">
                    <mxGeometry relative="1" as="geometry">
                        <mxPoint x="595" y="295" as="targetPoint"/>
                    </mxGeometry>
                </mxCell>
                <mxCell id="62" style="edgeStyle=none;html=1;exitX=0.25;exitY=1;exitDx=0;exitDy=0;entryX=1;entryY=0;entryDx=0;entryDy=0;strokeColor=#FFB366;strokeWidth=7;fontSize=24;endSize=14;" parent="1" source="3" target="61" edge="1">
                    <mxGeometry relative="1" as="geometry">
                        <Array as="points"/>
                    </mxGeometry>
                </mxCell>
                <mxCell id="3" value="&lt;font style=&quot;font-size: 20px;&quot;&gt;UI&lt;/font&gt;" style="whiteSpace=wrap;html=1;fillColor=#f0a30a;strokeColor=#BD7000;fontColor=#000000;" parent="1" vertex="1">
                    <mxGeometry x="510" y="230" width="170" height="65" as="geometry"/>
                </mxCell>
                <mxCell id="87" style="edgeStyle=none;html=1;exitX=1;exitY=0;exitDx=0;exitDy=0;entryX=0;entryY=1;entryDx=0;entryDy=0;strokeWidth=7;strokeColor=#FFB366;" edge="1" parent="1" source="7" target="84">
                    <mxGeometry relative="1" as="geometry"/>
                </mxCell>
                <mxCell id="88" style="edgeStyle=none;html=1;exitX=0;exitY=0;exitDx=0;exitDy=0;entryX=0.626;entryY=0.85;entryDx=0;entryDy=0;strokeWidth=7;strokeColor=#FFB366;entryPerimeter=0;" edge="1" parent="1" source="7" target="61">
                    <mxGeometry relative="1" as="geometry"/>
                </mxCell>
                <mxCell id="7" value="&lt;font color=&quot;#000000&quot; style=&quot;font-size: 19px;&quot;&gt;&lt;b&gt;Watch live&lt;br&gt;&amp;nbsp;feed&lt;/b&gt;&lt;/font&gt;" style="rhombus;whiteSpace=wrap;html=1;fillColor=#fff2cc;strokeColor=#d6b656;" parent="1" vertex="1">
                    <mxGeometry x="570" y="760" width="130" height="145" as="geometry"/>
                </mxCell>
                <mxCell id="70" style="edgeStyle=none;html=1;exitX=1;exitY=0;exitDx=0;exitDy=0;strokeWidth=5;endSize=11;strokeColor=#9999FF;startSize=4;entryX=0.168;entryY=0.68;entryDx=0;entryDy=0;entryPerimeter=0;" parent="1" source="14" target="61" edge="1">
                    <mxGeometry relative="1" as="geometry">
                        <Array as="points"/>
                        <mxPoint x="280" y="590" as="targetPoint"/>
                    </mxGeometry>
                </mxCell>
                <mxCell id="14" value="&lt;font color=&quot;#000000&quot; style=&quot;font-size: 17px;&quot;&gt;Get daily&lt;br&gt;weekly\monthly&lt;br&gt;event logs&lt;/font&gt;" style="rhombus;whiteSpace=wrap;html=1;fillColor=#dae8fc;strokeColor=#6c8ebf;gradientColor=#7ea6e0;" parent="1" vertex="1">
                    <mxGeometry x="84" y="600" width="130" height="140" as="geometry"/>
                </mxCell>
                <mxCell id="17" value="&lt;font style=&quot;font-size: 17px;&quot; color=&quot;#000000&quot;&gt;Download&lt;br&gt;recordings&lt;br&gt;&lt;/font&gt;" style="rhombus;whiteSpace=wrap;html=1;fillColor=#dae8fc;strokeColor=#6c8ebf;" parent="1" vertex="1">
                    <mxGeometry x="970" y="590" width="120" height="140" as="geometry"/>
                </mxCell>
                <mxCell id="36" value="" style="edgeStyle=none;html=1;fontSize=25;fontColor=#000000;entryX=0.5;entryY=0;entryDx=0;entryDy=0;strokeColor=#FF8000;strokeWidth=3;endSize=17;exitX=0.5;exitY=1;exitDx=0;exitDy=0;" parent="1" source="19" target="58" edge="1">
                    <mxGeometry relative="1" as="geometry">
                        <mxPoint x="454.3299999999997" y="1030" as="targetPoint"/>
                        <mxPoint x="470.67" y="940" as="sourcePoint"/>
                        <Array as="points"/>
                    </mxGeometry>
                </mxCell>
                <mxCell id="64" style="edgeStyle=none;html=1;strokeColor=#FF8000;strokeWidth=3;fontSize=19;fontColor=#000000;endSize=18;entryX=0.5;entryY=1;entryDx=0;entryDy=0;exitX=0.5;exitY=0;exitDx=0;exitDy=0;" parent="1" source="19" target="7" edge="1">
                    <mxGeometry relative="1" as="geometry">
                        <mxPoint x="570" y="750" as="targetPoint"/>
                        <Array as="points"/>
                        <mxPoint x="680" y="780" as="sourcePoint"/>
                    </mxGeometry>
                </mxCell>
                <mxCell id="19" value="&lt;font style=&quot;font-size: 25px;&quot;&gt;Camera&lt;/font&gt;" style="whiteSpace=wrap;html=1;fontSize=17;fontColor=#000000;fillColor=#fa6800;strokeColor=#C73500;" parent="1" vertex="1">
                    <mxGeometry x="560" y="950" width="170" height="90" as="geometry"/>
                </mxCell>
                <mxCell id="39" style="edgeStyle=none;html=1;exitX=0.401;exitY=-0.005;exitDx=0;exitDy=0;fontSize=25;fontColor=#000000;strokeColor=#CC6600;strokeWidth=4;endSize=16;entryX=0.318;entryY=0.784;entryDx=0;entryDy=0;exitPerimeter=0;entryPerimeter=0;" parent="1" source="23" target="14" edge="1">
                    <mxGeometry relative="1" as="geometry">
                        <Array as="points">
                            <mxPoint x="100" y="1100"/>
                            <mxPoint x="90" y="810"/>
                            <mxPoint x="90" y="750"/>
                        </Array>
                        <mxPoint x="720" y="1630" as="sourcePoint"/>
                        <mxPoint x="360" y="820" as="targetPoint"/>
                    </mxGeometry>
                </mxCell>
                <mxCell id="23" value="Face, Users and recording events Database" style="shape=datastore;whiteSpace=wrap;html=1;fontSize=25;fontColor=#ffffff;fillColor=#a0522d;strokeColor=#6D1F00;" parent="1" vertex="1">
                    <mxGeometry x="48" y="1320" width="202" height="130" as="geometry"/>
                </mxCell>
                <mxCell id="45" value="" style="edgeStyle=none;html=1;fontSize=25;fontColor=#000000;strokeColor=#CC6600;strokeWidth=3;endSize=15;" parent="1" source="25" target="44" edge="1">
                    <mxGeometry relative="1" as="geometry"/>
                </mxCell>
                <mxCell id="25" value="Initialize databse&lt;br&gt;if not exist" style="whiteSpace=wrap;html=1;fontSize=25;fontColor=#ffffff;fillColor=#a0522d;strokeColor=#6D1F00;" parent="1" vertex="1">
                    <mxGeometry x="500" y="10" width="190" height="80" as="geometry"/>
                </mxCell>
                <mxCell id="37" style="edgeStyle=none;html=1;exitX=0.435;exitY=0.987;exitDx=0;exitDy=0;entryX=1;entryY=0.5;entryDx=0;entryDy=0;fontSize=25;fontColor=#000000;strokeColor=#CC6600;strokeWidth=5;endSize=16;exitPerimeter=0;" parent="1" source="35" target="23" edge="1">
                    <mxGeometry relative="1" as="geometry">
                        <mxPoint x="361" y="1205" as="sourcePoint"/>
                        <mxPoint x="160" y="1310" as="targetPoint"/>
                        <Array as="points">
                            <mxPoint x="350" y="1370"/>
                        </Array>
                    </mxGeometry>
                </mxCell>
                <mxCell id="35" value="Save Events logs&lt;br&gt;+ name of file of the recorded event&amp;nbsp;" style="whiteSpace=wrap;html=1;fontSize=17;fillColor=#a0522d;strokeColor=#6D1F00;fontColor=#ffffff;" parent="1" vertex="1">
                    <mxGeometry x="380" y="1200" width="160" height="85" as="geometry"/>
                </mxCell>
                <mxCell id="41" value="Record events and save file" style="whiteSpace=wrap;html=1;fontSize=17;fillColor=#76608a;strokeColor=#432D57;fontColor=#ffffff;" parent="1" vertex="1">
                    <mxGeometry x="880" y="1160" width="180" height="105" as="geometry"/>
                </mxCell>
                <mxCell id="46" style="edgeStyle=none;html=1;exitX=0.5;exitY=1;exitDx=0;exitDy=0;entryX=0.235;entryY=0.037;entryDx=0;entryDy=0;fontSize=25;fontColor=#000000;strokeColor=#CC6600;strokeWidth=5;endSize=15;entryPerimeter=0;" parent="1" source="44" target="23" edge="1">
                    <mxGeometry relative="1" as="geometry">
                        <Array as="points">
                            <mxPoint x="40" y="590"/>
                            <mxPoint x="40" y="750"/>
                            <mxPoint x="50" y="930"/>
                            <mxPoint x="70" y="1170"/>
                        </Array>
                    </mxGeometry>
                </mxCell>
                <mxCell id="44" value="1. EventLog&lt;br&gt;(which person was spotted [unkown person or recognized face],&lt;br&gt;&amp;nbsp;When was a person was spotted[date and time],&amp;nbsp;&lt;br&gt;The name of the file it was recorded on)&lt;div&gt;&lt;font style=&quot;color: rgb(255, 255, 255);&quot;&gt;----------------------------&lt;/font&gt;&lt;br&gt;&lt;font style=&quot;color: rgb(255, 255, 255);&quot;&gt;2. Username + hashed password+Face Encoding&lt;/font&gt;&lt;div&gt;&lt;font style=&quot;color: rgb(255, 255, 255);&quot;&gt;-----------------------------&lt;br&gt;3. Admin user with preset name and password&lt;/font&gt;&lt;/div&gt;&lt;/div&gt;" style="whiteSpace=wrap;html=1;fontSize=25;fillColor=#a0522d;strokeColor=#6D1F00;fontColor=#ffffff;" parent="1" vertex="1">
                    <mxGeometry x="-65" width="345" height="420" as="geometry"/>
                </mxCell>
                <mxCell id="90" style="edgeStyle=none;html=1;exitX=1;exitY=1;exitDx=0;exitDy=0;entryX=0;entryY=0.5;entryDx=0;entryDy=0;strokeColor=#FF9999;strokeWidth=8;endSize=11;" edge="1" parent="1" source="48" target="75">
                    <mxGeometry relative="1" as="geometry"/>
                </mxCell>
                <mxCell id="48" value="&lt;font style=&quot;font-size: 17px;&quot; color=&quot;#000000&quot;&gt;Delete&amp;nbsp;&lt;br&gt;Recording&lt;br&gt;&lt;/font&gt;" style="rhombus;whiteSpace=wrap;html=1;fillColor=#e1d5e7;strokeColor=#9673a6;" parent="1" vertex="1">
                    <mxGeometry x="550" y="570" width="120" height="140" as="geometry"/>
                </mxCell>
                <mxCell id="60" style="edgeStyle=none;html=1;fontSize=18;fontColor=#FFFFFF;strokeColor=#FF0000;strokeWidth=5;endSize=13;exitX=0;exitY=0.75;exitDx=0;exitDy=0;" parent="1" target="35" edge="1" source="58">
                    <mxGeometry relative="1" as="geometry">
                        <mxPoint x="397.2100000000001" y="1066.68" as="sourcePoint"/>
                        <mxPoint x="262.79" y="1150" as="targetPoint"/>
                        <Array as="points">
                            <mxPoint x="500" y="1150"/>
                        </Array>
                    </mxGeometry>
                </mxCell>
                <mxCell id="68" style="edgeStyle=none;html=1;exitX=0.444;exitY=0.778;exitDx=0;exitDy=0;entryX=0.655;entryY=0.15;entryDx=0;entryDy=0;strokeColor=#3399FF;strokeWidth=3;fontSize=19;fontColor=#000000;endSize=19;entryPerimeter=0;exitPerimeter=0;" parent="1" source="61" target="66" edge="1">
                    <mxGeometry relative="1" as="geometry">
                        <Array as="points"/>
                    </mxGeometry>
                </mxCell>
                <mxCell id="61" value="&lt;font style=&quot;font-size: 24px; color: rgb(255, 255, 255);&quot;&gt;ADMIN&lt;/font&gt;" style="rhombus;whiteSpace=wrap;html=1;fillColor=#0050ef;fontColor=#ffffff;strokeColor=#001DBC;" parent="1" vertex="1">
                    <mxGeometry x="300" y="420" width="180" height="180" as="geometry"/>
                </mxCell>
                <mxCell id="69" style="edgeStyle=none;html=1;exitX=0;exitY=1;exitDx=0;exitDy=0;strokeColor=#663300;strokeWidth=4;fontSize=19;fontColor=#000000;endSize=15;" parent="1" source="66" target="23" edge="1">
                    <mxGeometry relative="1" as="geometry">
                        <Array as="points">
                            <mxPoint x="170" y="970"/>
                            <mxPoint x="160" y="1050"/>
                            <mxPoint x="149" y="1170"/>
                        </Array>
                    </mxGeometry>
                </mxCell>
                <mxCell id="66" value="Register and &lt;br&gt;Delete Users" style="rhombus;whiteSpace=wrap;html=1;fontSize=19;fontColor=#ffffff;fillColor=#663300;strokeColor=#2D7600;" parent="1" vertex="1">
                    <mxGeometry x="170" y="690" width="160" height="180" as="geometry"/>
                </mxCell>
                <mxCell id="5" value="&lt;font color=&quot;#000000&quot; style=&quot;font-size: 15px;&quot;&gt;Register face&lt;/font&gt;&lt;div&gt;&lt;font color=&quot;#000000&quot; style=&quot;font-size: 15px;&quot;&gt;Encoding + Face name&lt;/font&gt;&lt;/div&gt;" style="rhombus;whiteSpace=wrap;html=1;fillColor=#ffe6cc;strokeColor=#d79b00;" parent="1" vertex="1">
                    <mxGeometry x="260" y="840" width="130" height="150" as="geometry"/>
                </mxCell>
                <mxCell id="80" style="edgeStyle=none;html=1;exitX=0.75;exitY=0;exitDx=0;exitDy=0;strokeWidth=5;endSize=17;strokeColor=#76608A;entryX=0.5;entryY=1;entryDx=0;entryDy=0;" parent="1" source="41" target="75" edge="1">
                    <mxGeometry relative="1" as="geometry">
                        <mxPoint x="930" y="1130" as="sourcePoint"/>
                        <mxPoint x="680" y="930" as="targetPoint"/>
                        <Array as="points">
                            <mxPoint x="1085" y="1060"/>
                        </Array>
                    </mxGeometry>
                </mxCell>
                <mxCell id="58" value="&lt;font color=&quot;#ffffff&quot; style=&quot;font-size: 25px;&quot;&gt;Face Detected&lt;/font&gt;" style="whiteSpace=wrap;html=1;fontSize=17;fontColor=#ffffff;fillColor=#e51400;strokeColor=#B20000;" parent="1" vertex="1">
                    <mxGeometry x="560" y="1080" width="170" height="90" as="geometry"/>
                </mxCell>
                <mxCell id="79" style="edgeStyle=none;html=1;exitX=1;exitY=0.75;exitDx=0;exitDy=0;entryX=0.004;entryY=0.326;entryDx=0;entryDy=0;fontSize=18;fontColor=#FFFFFF;strokeColor=#FF0000;strokeWidth=5;endSize=14;entryPerimeter=0;" parent="1" source="58" target="41" edge="1">
                    <mxGeometry relative="1" as="geometry">
                        <mxPoint x="500" y="1290" as="sourcePoint"/>
                        <mxPoint x="355" y="1360" as="targetPoint"/>
                        <Array as="points">
                            <mxPoint x="760" y="1160"/>
                        </Array>
                    </mxGeometry>
                </mxCell>
                <mxCell id="81" style="edgeStyle=none;html=1;strokeColor=#3399FF;strokeWidth=3;fontSize=19;fontColor=#000000;endSize=19;entryX=1;entryY=0;entryDx=0;entryDy=0;" parent="1" target="5" edge="1">
                    <mxGeometry relative="1" as="geometry">
                        <Array as="points">
                            <mxPoint x="400" y="760"/>
                        </Array>
                        <mxPoint x="402.62714285714264" y="579.9971428571429" as="sourcePoint"/>
                        <mxPoint x="350" y="1037.5" as="targetPoint"/>
                    </mxGeometry>
                </mxCell>
                <mxCell id="82" style="edgeStyle=none;html=1;fontSize=18;fontColor=#FFFFFF;strokeColor=#FF0000;strokeWidth=5;endSize=13;entryX=1;entryY=1;entryDx=0;entryDy=0;exitX=0;exitY=0.5;exitDx=0;exitDy=0;" parent="1" source="58" target="5" edge="1">
                    <mxGeometry relative="1" as="geometry">
                        <mxPoint x="380" y="1034" as="sourcePoint"/>
                        <mxPoint x="326.89" y="1108.32" as="targetPoint"/>
                        <Array as="points">
                            <mxPoint x="450" y="1040"/>
                        </Array>
                    </mxGeometry>
                </mxCell>
                <mxCell id="83" style="edgeStyle=none;html=1;exitX=0;exitY=1;exitDx=0;exitDy=0;entryX=0.643;entryY=0.009;entryDx=0;entryDy=0;entryPerimeter=0;strokeWidth=7;endSize=16;strokeColor=#FFE6CC;" parent="1" source="5" target="23" edge="1">
                    <mxGeometry relative="1" as="geometry"/>
                </mxCell>
                <mxCell id="84" value="&lt;div&gt;&lt;font style=&quot;font-size: 24px;&quot;&gt;NON&lt;/font&gt;&lt;/div&gt;&lt;font style=&quot;font-size: 24px;&quot;&gt;ADMIN&lt;/font&gt;" style="rhombus;whiteSpace=wrap;html=1;fillColor=#89B8FF;fontColor=#ffffff;strokeColor=#001DBC;" parent="1" vertex="1">
                    <mxGeometry x="930" y="370" width="180" height="180" as="geometry"/>
                </mxCell>
                <mxCell id="86" style="edgeStyle=none;html=1;exitX=0.796;exitY=0.971;exitDx=0;exitDy=0;strokeColor=#FFB366;strokeWidth=6;fontSize=24;endSize=14;entryX=0;entryY=0;entryDx=0;entryDy=0;exitPerimeter=0;" parent="1" source="3" target="84" edge="1">
                    <mxGeometry relative="1" as="geometry">
                        <mxPoint x="602.5" y="310" as="sourcePoint"/>
                        <mxPoint x="657.5" y="425" as="targetPoint"/>
                        <Array as="points">
                            <mxPoint x="710" y="350"/>
                            <mxPoint x="800" y="370"/>
                        </Array>
                    </mxGeometry>
                </mxCell>
                <mxCell id="89" style="edgeStyle=none;html=1;exitX=0.667;exitY=0.778;exitDx=0;exitDy=0;strokeColor=#3399FF;strokeWidth=3;fontSize=19;fontColor=#000000;endSize=19;exitPerimeter=0;entryX=0;entryY=0;entryDx=0;entryDy=0;" edge="1" parent="1" source="61" target="48">
                    <mxGeometry relative="1" as="geometry">
                        <Array as="points"/>
                        <mxPoint x="512" y="452" as="sourcePoint"/>
                        <mxPoint x="550" y="590" as="targetPoint"/>
                    </mxGeometry>
                </mxCell>
                <mxCell id="91" style="edgeStyle=none;html=1;exitX=0.913;exitY=0.569;exitDx=0;exitDy=0;entryX=0.118;entryY=0.435;entryDx=0;entryDy=0;strokeColor=#3399FF;strokeWidth=3;fontSize=19;fontColor=#000000;endSize=19;entryPerimeter=0;exitPerimeter=0;" edge="1" parent="1" source="61" target="17">
                    <mxGeometry relative="1" as="geometry">
                        <Array as="points">
                            <mxPoint x="690" y="522"/>
                        </Array>
                        <mxPoint x="450" y="500" as="sourcePoint"/>
                        <mxPoint x="550" y="590" as="targetPoint"/>
                    </mxGeometry>
                </mxCell>
                <mxCell id="92" style="edgeStyle=none;html=1;exitX=0.5;exitY=1;exitDx=0;exitDy=0;strokeColor=#89B8FF;strokeWidth=3;fontSize=19;fontColor=#000000;endSize=19;entryX=0.333;entryY=0.214;entryDx=0;entryDy=0;entryPerimeter=0;" edge="1" parent="1" source="84" target="17">
                    <mxGeometry relative="1" as="geometry">
                        <Array as="points">
                            <mxPoint x="1000" y="580"/>
                        </Array>
                        <mxPoint x="699.4099999999997" y="566.6800000000001" as="sourcePoint"/>
                        <mxPoint x="730" y="567" as="targetPoint"/>
                    </mxGeometry>
                </mxCell>
                <mxCell id="93" style="edgeStyle=none;html=1;entryX=1;entryY=1;entryDx=0;entryDy=0;strokeColor=#A0522D;endSize=15;strokeWidth=5;exitX=0.44;exitY=0.026;exitDx=0;exitDy=0;exitPerimeter=0;" edge="1" parent="1" source="75" target="17">
                    <mxGeometry relative="1" as="geometry">
                        <mxPoint x="1150" y="740" as="sourcePoint"/>
                        <Array as="points">
                            <mxPoint x="1110" y="750"/>
                        </Array>
                    </mxGeometry>
                </mxCell>
                <mxCell id="94" style="edgeStyle=none;html=1;exitX=0;exitY=0.5;exitDx=0;exitDy=0;entryX=0.822;entryY=0.679;entryDx=0;entryDy=0;entryPerimeter=0;strokeColor=#CCE5FF;strokeWidth=7;endSize=10;" edge="1" parent="1" source="17" target="61">
                    <mxGeometry relative="1" as="geometry">
                        <Array as="points">
                            <mxPoint x="680" y="542"/>
                        </Array>
                    </mxGeometry>
                </mxCell>
                <mxCell id="95" style="edgeStyle=none;html=1;exitX=0.675;exitY=0.215;exitDx=0;exitDy=0;entryX=0.886;entryY=0.619;entryDx=0;entryDy=0;entryPerimeter=0;strokeWidth=6;endSize=10;strokeColor=#CCE5FF;exitPerimeter=0;" edge="1" parent="1" source="17" target="84">
                    <mxGeometry relative="1" as="geometry">
                        <Array as="points">
                            <mxPoint x="1110" y="560"/>
                        </Array>
                    </mxGeometry>
                </mxCell>
                <mxCell id="75" value="Videos&amp;nbsp;&lt;div&gt;&lt;font style=&quot;color: rgb(255, 255, 255);&quot;&gt;Database&lt;/font&gt;&lt;/div&gt;" style="shape=datastore;whiteSpace=wrap;html=1;fontSize=25;fontColor=#ffffff;fillColor=#a0522d;strokeColor=#6D1F00;" parent="1" vertex="1">
                    <mxGeometry x="1020" y="830" width="130" height="110" as="geometry"/>
                </mxCell>
            </root>
        </mxGraphModel>
    </diagram>
</mxfile>